<svg width="132" height="30" viewBox="0 0 132 30" fill="none" xmlns="http://www.w3.org/2000/svg">
<path d="M19.04 11.7368L16.7271 14.0497C18.7791 16.1018 22.1067 16.1018 24.1608 14.0497L30.0001 8.21042C27.9481 6.15838 24.6205 6.15838 22.5664 8.21042L19.04 11.7368Z" fill="white"/>
<path d="M21.7898 0L18.2634 3.52637C16.2114 5.57841 16.2114 8.90599 18.2634 10.9601L21.7898 7.43374C23.8418 5.38169 23.8418 2.05411 21.7898 0Z" fill="white"/>
<path d="M10.9601 18.2636L13.2731 15.9507C11.221 13.8986 7.89343 13.8986 5.83932 15.9507L0 21.79C2.05204 23.842 5.37963 23.842 7.43374 21.79L10.9601 18.2636Z" fill="white"/>
<path d="M8.21017 30.0001L11.7365 26.4738C13.7886 24.4217 13.7886 21.0942 11.7365 19.04L8.21017 22.5664C6.15813 24.6184 6.15813 27.946 8.21017 30.0001Z" fill="white"/>
<path d="M18.2634 19.04L15.9504 16.7271C13.8984 18.7791 13.8984 22.1067 15.9504 24.1608L21.7897 30.0001C23.8418 27.9481 23.8418 24.6205 21.7897 22.5664L18.2634 19.04Z" fill="white"/>
<path d="M29.9999 21.79L26.4735 18.2636C24.4215 16.2116 21.0939 16.2116 19.0398 18.2636L22.5662 21.79C24.6182 23.8421 27.9458 23.8421 29.9999 21.79Z" fill="white"/>
<path d="M11.7365 10.9601L14.0495 13.2731C16.1015 11.221 16.1015 7.89343 14.0495 5.83932L8.21018 0C6.15813 2.05204 6.15813 5.37962 8.21018 7.43374L11.7365 10.9601Z" fill="white"/>
<path d="M0 8.21042L3.52637 11.7368C5.57841 13.7888 8.90599 13.7888 10.9601 11.7368L7.43374 8.21042C5.3817 6.15838 2.05411 6.15838 0 8.21042Z" fill="white"/>
<path d="M49.1104 12.7677C48.9654 12.542 48.7811 12.2728 48.5554 11.9602C48.3297 11.6454 48.0253 11.3452 47.6381 11.0553C47.253 10.7654 46.7809 10.521 46.2259 10.3202C45.671 10.1193 44.998 10.0179 44.2111 10.0179C43.5506 10.0179 42.9087 10.1152 42.2813 10.3077C41.6539 10.5003 41.0906 10.8068 40.5916 11.2251C40.0926 11.6433 39.6908 12.1817 39.3844 12.8423C39.0779 13.5028 38.9268 14.2897 38.9268 15.207C38.9268 15.8986 39.0676 16.5426 39.3492 17.1369C39.6308 17.7332 40.0139 18.2467 40.4963 18.6816C40.9788 19.1164 41.5545 19.4581 42.2212 19.7066C42.888 19.9571 43.6086 20.0814 44.3809 20.0814C44.8965 20.0814 45.3914 20.0379 45.8656 19.9488C46.3398 19.8598 46.7954 19.7066 47.2302 19.4912C47.665 19.2738 48.0709 18.9798 48.4498 18.6112C48.8267 18.2405 49.1849 17.7663 49.5245 17.1865L51.2142 18.1287C50.9408 18.6112 50.6116 19.0709 50.2244 19.5036C49.8392 19.9385 49.3754 20.3236 48.837 20.6611C48.2987 20.9987 47.6588 21.2637 46.9175 21.4584C46.1783 21.6509 45.3169 21.7483 44.3354 21.7483C43.1924 21.7483 42.1715 21.5743 41.2708 21.2285C40.37 20.8827 39.5977 20.4085 38.9537 19.8039C38.3097 19.2013 37.819 18.489 37.4814 17.669C37.1439 16.849 36.9741 15.9628 36.9741 15.0144C36.9741 13.9377 37.1667 12.9789 37.5539 12.1424C37.9391 11.3058 38.4629 10.6101 39.1235 10.0551C39.784 9.50018 40.5502 9.07777 41.4281 8.78787C42.304 8.49798 43.2338 8.35303 44.2153 8.35303C45.1968 8.35303 45.9961 8.45864 46.7125 8.66777C47.429 8.87691 48.0481 9.14196 48.5699 9.46498C49.0917 9.78801 49.5349 10.1566 49.8972 10.5749C50.2596 10.9931 50.5619 11.4031 50.8021 11.8049L49.1124 12.7698L49.1104 12.7677Z" fill="white"/>
<path d="M66.4875 19.4044C66.4875 19.775 66.5082 20.1084 66.5475 20.4066C66.5868 20.7047 66.6407 21.0216 66.7049 21.3591H64.7501C64.7025 21.1665 64.6487 20.9284 64.5928 20.6468C64.5369 20.3651 64.5079 20.096 64.5079 19.8392C63.5906 20.4356 62.6132 20.9015 61.5758 21.239C60.5384 21.5765 59.4161 21.7463 58.2089 21.7463C57.6933 21.7463 57.1342 21.6987 56.5316 21.6013C55.9291 21.504 55.37 21.3197 54.8544 21.0464C54.3388 20.7731 53.9122 20.3859 53.5747 19.8889C53.2372 19.3899 53.0674 18.7314 53.0674 17.9093C53.0674 17.1846 53.2372 16.5655 53.5747 16.0519C53.9122 15.5363 54.3719 15.1077 54.9496 14.7598C55.5294 14.414 56.1962 14.1366 56.952 13.9274C57.7078 13.7183 58.5133 13.5464 59.3664 13.4077C60.2195 13.271 61.0871 13.1592 61.9734 13.0701C62.8575 12.9811 63.7107 12.89 64.5307 12.7927V12.3102C64.5307 11.8754 64.4147 11.5109 64.1807 11.2127C63.9467 10.9146 63.6382 10.6744 63.251 10.488C62.8658 10.3037 62.431 10.1671 61.9485 10.078C61.4661 9.98898 60.9753 9.94549 60.4763 9.94549C59.6397 9.94549 58.9274 10.0221 58.3414 10.1753C57.7533 10.3286 57.2626 10.5129 56.8691 10.7303C56.4757 10.9477 56.1568 11.1817 55.9166 11.4302C55.6744 11.6807 55.4735 11.8919 55.3141 12.07L53.8418 11.0554C54.0178 10.8297 54.2518 10.5646 54.5417 10.2582C54.8316 9.95171 55.2209 9.65974 55.7116 9.37813C56.2024 9.09652 56.8215 8.85632 57.569 8.65339C58.3166 8.45254 59.238 8.35107 60.3334 8.35107C61.0581 8.35107 61.7808 8.41112 62.5055 8.53122C63.2303 8.65132 63.8887 8.8646 64.4851 9.17106C65.0794 9.47752 65.5619 9.8958 65.9325 10.4259C66.3032 10.956 66.4875 11.6248 66.4875 12.4282V19.4023V19.4044ZM64.5327 14.385C63.0998 14.53 61.7932 14.6791 60.6109 14.8323C59.4285 14.9855 58.4139 15.1905 57.569 15.4473C56.7242 15.7041 56.0719 16.0271 55.6143 16.4122C55.1567 16.7974 54.9268 17.2964 54.9268 17.9093C54.9268 18.4084 55.0469 18.8059 55.2892 19.1041C55.5315 19.4023 55.8193 19.628 56.1589 19.7791C56.4964 19.9324 56.8464 20.0318 57.2087 20.0815C57.5711 20.1291 57.8734 20.1539 58.1136 20.1539C58.7887 20.1539 59.4451 20.0815 60.0808 19.9365C60.7165 19.7916 61.3108 19.6197 61.8657 19.4168C62.4206 19.2159 62.9238 19.0026 63.3731 18.7769C63.8225 18.5512 64.2097 18.3504 64.5307 18.1744V14.385H64.5327Z" fill="white"/>
<path d="M70.4922 17.4246C71.1031 18.1969 71.8754 18.8326 72.8093 19.3317C73.7432 19.8307 74.8758 20.0792 76.2114 20.0792C76.727 20.0792 77.2261 20.0398 77.7085 19.9591C78.191 19.8783 78.6134 19.7499 78.9758 19.5739C79.3381 19.3979 79.628 19.1722 79.8455 18.8989C80.0629 18.6255 80.1706 18.3046 80.1706 17.9339C80.1706 17.3397 79.9138 16.9048 79.3982 16.6315C78.8826 16.3582 78.2366 16.1532 77.4559 16.0165C76.6753 15.8798 75.8304 15.768 74.9214 15.679C74.0124 15.5899 73.1675 15.4346 72.3869 15.2089C71.6062 14.9832 70.9581 14.6416 70.4446 14.1839C69.929 13.7263 69.6722 13.0616 69.6722 12.1919C69.6722 11.4672 69.842 10.8646 70.1795 10.3822C70.5171 9.89971 70.9519 9.50628 71.482 9.19981C72.0121 8.89335 72.6126 8.678 73.2793 8.54755C73.9461 8.41917 74.6108 8.35498 75.2713 8.35498C76.3336 8.35498 77.2343 8.45644 77.9736 8.6573C78.7128 8.85815 79.334 9.10042 79.831 9.38204C80.33 9.66365 80.7276 9.96183 81.0258 10.2745C81.3239 10.5892 81.5517 10.8584 81.7132 11.0821L80.3859 12.2893C79.8703 11.6142 79.1994 11.0676 78.3711 10.6472C77.5429 10.2289 76.5013 10.0198 75.2465 10.0198C74.089 10.0198 73.1944 10.1937 72.567 10.5395C71.9396 10.8853 71.6249 11.3968 71.6249 12.0718C71.6249 12.4736 71.774 12.7924 72.0721 13.0244C72.3703 13.2583 72.7679 13.4426 73.2669 13.5793C73.766 13.716 74.3292 13.8216 74.9566 13.894C75.584 13.9665 76.2238 14.0473 76.8761 14.1363C77.5284 14.2254 78.1682 14.3372 78.7956 14.4738C79.423 14.6105 79.9863 14.8114 80.4853 15.0764C80.9843 15.3414 81.3819 15.6914 81.6801 16.1262C81.9783 16.5611 82.1274 17.116 82.1274 17.7911C82.1274 18.5158 81.9617 19.1308 81.6325 19.6381C81.3032 20.1454 80.8601 20.5554 80.3052 20.8681C79.7502 21.1828 79.1021 21.4065 78.3629 21.5431C77.6236 21.6798 76.8513 21.7481 76.0458 21.7481C74.6294 21.7481 73.3456 21.5266 72.1964 21.0834C71.0451 20.6403 69.9952 19.8638 69.0469 18.7539L70.4943 17.4266L70.4922 17.4246Z" fill="white"/>
<path d="M84.9497 3.81396H86.9044V10.5706C87.5795 9.9908 88.3518 9.47727 89.2215 9.02586C90.0912 8.57652 91.0872 8.35082 92.2137 8.35082C92.5988 8.35082 93.0895 8.39016 93.6859 8.47092C94.2802 8.55168 94.8558 8.74839 95.4108 9.06313C95.9657 9.37787 96.4399 9.84792 96.8354 10.4753C97.2288 11.1028 97.4276 11.9559 97.4276 13.0326V21.3588H95.4729V13.4178C95.4895 12.6785 95.3797 12.0822 95.1478 11.6328C94.9138 11.1835 94.6198 10.8356 94.2678 10.5954C93.9137 10.3532 93.5285 10.1979 93.1102 10.1254C92.692 10.0529 92.313 10.0177 91.9755 10.0177C91.4454 10.0177 90.934 10.0943 90.4432 10.2476C89.9525 10.4008 89.4928 10.5975 89.0683 10.8398C88.6417 11.082 88.2483 11.3512 87.8859 11.6473C87.5236 11.9455 87.1985 12.2478 86.9086 12.5522V21.3609H84.9539V3.81603L84.9497 3.81396Z" fill="white"/>
<path d="M102.977 10.6681H99.7922V9.00324H102.977V8.0383C102.977 7.5227 103.029 6.98847 103.134 6.43353C103.238 5.87858 103.451 5.37541 103.774 4.92607C104.095 4.47674 104.551 4.10608 105.139 3.81619C105.727 3.52629 106.503 3.38135 107.468 3.38135C107.967 3.38135 108.394 3.39377 108.748 3.41655C109.102 3.44139 109.408 3.46831 109.665 3.50144C109.922 3.53458 110.135 3.56977 110.305 3.60912C110.475 3.65053 110.622 3.68574 110.752 3.7168V5.45409C110.317 5.34228 109.883 5.24496 109.45 5.1642C109.015 5.08344 108.549 5.0441 108.05 5.0441C107.375 5.0441 106.83 5.12071 106.42 5.27395C106.01 5.42718 105.696 5.64045 105.478 5.91378C105.261 6.18711 105.116 6.51635 105.043 6.90357C104.971 7.28871 104.936 7.71527 104.936 8.18325V9.00324H110.125V10.6681H104.936V21.359H102.981V10.6681H102.977Z" fill="white"/>
<path d="M125.591 21.3588H123.636V19.5242C122.961 20.104 122.189 20.6175 121.319 21.0689C120.449 21.5183 119.453 21.744 118.327 21.744C117.942 21.744 117.449 21.7046 116.855 21.6239C116.258 21.5431 115.685 21.3464 115.13 21.0317C114.575 20.7169 114.101 20.2469 113.705 19.6194C113.312 18.992 113.113 18.1389 113.113 17.0622V8.73596H115.068V16.677C115.051 17.4328 115.161 18.0333 115.393 18.4744C115.627 18.9175 115.919 19.2592 116.273 19.4994C116.627 19.7416 117.012 19.8969 117.43 19.9694C117.849 20.0419 118.228 20.0771 118.565 20.0771C119.095 20.0771 119.607 20.0005 120.097 19.8472C120.588 19.694 121.046 19.4973 121.472 19.255C121.899 19.0127 122.292 18.7436 122.655 18.4474C123.017 18.1493 123.342 17.849 123.632 17.5426V8.73389H125.587V21.3568L125.591 21.3588Z" fill="white"/>
<path d="M129.115 3.81396H131.07V21.3588H129.115V3.81396Z" fill="white"/>
</svg>
